{
  "accessors": [
    {
      "bufferView": 2,
      "componentType": 5126,
      "count": 983,
      "max": [
        5.57169246673584,
        0.4349355697631836,
        12.023962020874023
      ],
      "min": [
        -5.571617126464844,
        -0.3904173672199249,
        -12.023962020874023
      ],
      "type": "VEC3"
    },
    {
      "bufferView": 2,
      "byteOffset": 11796,
      "componentType": 5126,
      "count": 983,
      "max": [
        0.9848079085350037,
        0.9999999403953552,
        1.0
      ],
      "min": [
        -0.9848079681396484,
        -0.9999999403953552,
        -1.0
      ],
      "type": "VEC3"
    },
    {
      "bufferView": 1,
      "componentType": 5126,
      "count": 983,
      "max": [
        1.0,
        1.0
      ],
      "min": [
        -0.027777671813964844,
        0.0
      ],
      "type": "VEC2"
    },
    {
      "bufferView": 0,
      "componentType": 5125,
      "count": 2838,
      "type": "SCALAR"
    },
    {
      "bufferView": 2,
      "byteOffset": 23592,
      "componentType": 5126,
      "count": 4,
      "max": [
        5.192362308502197,
        -0.1848074197769165,
        11.44095516204834
      ],
      "min": [
        -5.171816349029541,
        -0.1906365156173706,
        -10.588157653808594
      ],
      "type": "VEC3"
    },
    {
      "bufferView": 2,
      "byteOffset": 23640,
      "componentType": 5126,
      "count": 4,
      "max": [
        0.20344260334968567,
        -0.9754343032836914,
        0.04022414609789848
      ],
      "min": [
        -0.21246689558029175,
        -0.9782602787017822,
        -0.11252295225858688
      ],
      "type": "VEC3"
    },
    {
      "bufferView": 1,
      "byteOffset": 7864,
      "componentType": 5126,
      "count": 4,
      "max": [
        1.0,
        1.0
      ],
      "min": [
        0.0,
        0.0
      ],
      "type": "VEC2"
    },
    {
      "bufferView": 0,
      "byteOffset": 11352,
      "componentType": 5125,
      "count": 6,
      "type": "SCALAR"
    },
    {
      "bufferView": 2,
      "byteOffset": 23688,
      "componentType": 5126,
      "count": 72,
      "max": [
        0.28317588567733765,
        0.3149913549423218,
        11.55943489074707
      ],
      "min": [
        -4.371276378631592,
        -0.30571258068084717,
        6.379875659942627
      ],
      "type": "VEC3"
    },
    {
      "bufferView": 2,
      "byteOffset": 24552,
      "componentType": 5126,
      "count": 72,
      "max": [
        0.0005682999617420137,
        0.9999999403953552,
        8.184494618035387e-06
      ],
      "min": [
        -0.0005795345059596002,
        -0.9999999403953552,
        -1.5939926015562378e-05
      ],
      "type": "VEC3"
    },
    {
      "bufferView": 1,
      "byteOffset": 7896,
      "componentType": 5126,
      "count": 72,
      "max": [
        0.75,
        0.0
      ],
      "min": [
        -0.027777671813964844,
        0.0
      ],
      "type": "VEC2"
    },
    {
      "bufferView": 0,
      "byteOffset": 11376,
      "componentType": 5125,
      "count": 192,
      "type": "SCALAR"
    },
    {
      "bufferView": 2,
      "byteOffset": 25416,
      "componentType": 5126,
      "count": 714,
      "max": [
        2.849188804626465,
        0.43548041582107544,
        10.49184799194336
      ],
      "min": [
        -3.238351345062256,
        -0.43777889013290405,
        -11.348560333251953
      ],
      "type": "VEC3"
    },
    {
      "bufferView": 2,
      "byteOffset": 33984,
      "componentType": 5126,
      "count": 714,
      "max": [
        0.9999999403953552,
        0.9999999403953552,
        1.0
      ],
      "min": [
        -0.9999999403953552,
        -0.9999999403953552,
        -1.0
      ],
      "type": "VEC3"
    },
    {
      "bufferView": 1,
      "byteOffset": 8472,
      "componentType": 5126,
      "count": 714,
      "max": [
        1.0,
        1.0
      ],
      "min": [
        -0.027777791023254395,
        0.0
      ],
      "type": "VEC2"
    },
    {
      "bufferView": 0,
      "byteOffset": 12144,
      "componentType": 5125,
      "count": 2196,
      "type": "SCALAR"
    },
    {
      "bufferView": 2,
      "byteOffset": 42552,
      "componentType": 5126,
      "count": 24,
      "max": [
        -2.3074352741241455,
        0.24982881546020508,
        11.493292808532715
      ],
      "min": [
        -5.201151371002197,
        0.07963502407073975,
        5.339138984680176
      ],
      "type": "VEC3"
    },
    {
      "bufferView": 2,
      "byteOffset": 42840,
      "componentType": 5126,
      "count": 24,
      "max": [
        0.9999999403953552,
        0.9999999403953552,
        1.0
      ],
      "min": [
        -0.9999999403953552,
        -0.9999999403953552,
        -1.0
      ],
      "type": "VEC3"
    },
    {
      "bufferView": 1,
      "byteOffset": 14184,
      "componentType": 5126,
      "count": 24,
      "max": [
        1.0,
        1.0
      ],
      "min": [
        0.0,
        0.0
      ],
      "type": "VEC2"
    },
    {
      "bufferView": 0,
      "byteOffset": 20928,
      "componentType": 5125,
      "count": 36,
      "type": "SCALAR"
    }
  ],
  "asset": {
    "extras": {
      "author": "Anjith (https://sketchfab.com/anjithkrish89)",
      "license": "CC-BY-4.0 (http://creativecommons.org/licenses/by/4.0/)",
      "source": "https://sketchfab.com/3d-models/low-poly-smartphone-2f0211fa7ca64a6987998c105416f7b7",
      "title": "Low-Poly Smartphone"
    },
    "generator": "Sketchfab-11.67.0",
    "version": "2.0"
  },
  "bufferViews": [
    {
      "buffer": 0,
      "byteLength": 21072,
      "name": "floatBufferViews",
      "target": 34963
    },
    {
      "buffer": 0,
      "byteLength": 14376,
      "byteOffset": 21072,
      "byteStride": 8,
      "name": "floatBufferViews",
      "target": 34962
    },
    {
      "buffer": 0,
      "byteLength": 43128,
      "byteOffset": 35448,
      "byteStride": 12,
      "name": "floatBufferViews",
      "target": 34962
    }
  ],
  "buffers": [
    {
      "byteLength": 78576,
      "uri": "scene.bin"
    }
  ],
  "materials": [
    {
      "doubleSided": true,
      "name": "01_-_Default",
      "pbrMetallicRoughness": {
        "baseColorFactor": [
          0.0196078,
          0.0196078,
          0.0196078,
          1.0
        ],
        "metallicFactor": 0.7680294218211721,
        "roughnessFactor": 0.04982922392645539
      }
    },
    {
      "doubleSided": true,
      "name": "05_-_Default",
      "pbrMetallicRoughness": {
        "baseColorFactor": [
          0.0,
          0.0,
          0.0,
          1.0
        ],
        "metallicFactor": 0.0,
        "roughnessFactor": 0.10635585110822621
      }
    },
    {
      "doubleSided": true,
      "name": "03_-_Default",
      "pbrMetallicRoughness": {
        "baseColorFactor": [
          0.588235,
          0.588235,
          0.588235,
          1.0
        ],
        "metallicFactor": 0.0,
        "roughnessFactor": 0.8929713596497552
      }
    },
    {
      "doubleSided": true,
      "emissiveFactor": [
        1.0,
        1.0,
        1.0
      ],
      "name": "02_-_Default",
      "pbrMetallicRoughness": {
        "metallicFactor": 0.0,
        "roughnessFactor": 0.8929713596497552
      }
    },
    {
      "doubleSided": true,
      "name": "07_-_Default",
      "pbrMetallicRoughness": {
        "baseColorFactor": [
          0.25098,
          0.25098,
          0.25098,
          1.0
        ],
        "metallicFactor": 0.0,
        "roughnessFactor": 0.7454415587728429
      }
    }
  ],
  "meshes": [
    {
      "name": "Box001_01 - Default_0",
      "primitives": [
        {
          "attributes": {
            "NORMAL": 1,
            "POSITION": 0,
            "TEXCOORD_0": 2
          },
          "indices": 3,
          "material": 0,
          "mode": 4
        }
      ]
    },
    {
      "name": "Box001_05 - Default_0",
      "primitives": [
        {
          "attributes": {
            "NORMAL": 5,
            "POSITION": 4,
            "TEXCOORD_0": 6
          },
          "indices": 7,
          "material": 1,
          "mode": 4
        }
      ]
    },
    {
      "name": "Box001_03 - Default_0",
      "primitives": [
        {
          "attributes": {
            "NORMAL": 9,
            "POSITION": 8,
            "TEXCOORD_0": 10
          },
          "indices": 11,
          "material": 2,
          "mode": 4
        }
      ]
    },
    {
      "name": "Box001_02 - Default_0",
      "primitives": [
        {
          "attributes": {
            "NORMAL": 13,
            "POSITION": 12,
            "TEXCOORD_0": 14
          },
          "indices": 15,
          "material": 3,
          "mode": 4
        }
      ]
    },
    {
      "name": "Box001_07 - Default_0",
      "primitives": [
        {
          "attributes": {
            "NORMAL": 17,
            "POSITION": 16,
            "TEXCOORD_0": 18
          },
          "indices": 19,
          "material": 4,
          "mode": 4
        }
      ]
    }
  ],
  "nodes": [
    {
      "children": [
        1
      ],
      "matrix": [
        1.0,
        0.0,
        0.0,
        0.0,
        0.0,
        2.220446049250313e-16,
        -1.0,
        0.0,
        0.0,
        1.0,
        2.220446049250313e-16,
        0.0,
        0.0,
        0.0,
        0.0,
        1.0
      ],
      "name": "Sketchfab_model"
    },
    {
      "children": [
        2
      ],
      "matrix": [
        1.0,
        0.0,
        0.0,
        0.0,
        0.0,
        0.0,
        1.0,
        0.0,
        0.0,
        -1.0,
        0.0,
        0.0,
        0.0,
        0.0,
        0.0,
        1.0
      ],
      "name": "d7af4c4d647a415ba0323bba1266ced3.fbx"
    },
    {
      "children": [
        3
      ],
      "name": "RootNode"
    },
    {
      "children": [
        4,
        5,
        6,
        7,
        8
      ],
      "matrix": [
        1.0,
        0.0,
        0.0,
        0.0,
        0.0,
        2.220446049250313e-16,
        -1.0,
        0.0,
        0.0,
        1.0,
        2.220446049250313e-16,
        0.0,
        24.470129013061523,
        13.180227279663086,
        -13.597206115722656,
        1.0
      ],
      "name": "Box001"
    },
    {
      "mesh": 0,
      "name": "Box001_01 - Default_0"
    },
    {
      "mesh": 1,
      "name": "Box001_05 - Default_0"
    },
    {
      "mesh": 2,
      "name": "Box001_03 - Default_0"
    },
    {
      "mesh": 3,
      "name": "Box001_02 - Default_0"
    },
    {
      "mesh": 4,
      "name": "Box001_07 - Default_0"
    }
  ],
  "scene": 0,
  "scenes": [
    {
      "name": "Sketchfab_Scene",
      "nodes": [
        0
      ]
    }
  ]
}
