{
  "accessors": [
    {
      "bufferView": 1,
      "componentType": 5126,
      "count": 24,
      "max": [
        1,
        1,
        2.0032999515533447
      ],
      "min": [
        -1,
        -1,
        0.0032999999821186066
      ],
      "type": "VEC3"
    },
    {
      "bufferView": 1,
      "byteOffset": 288,
      "componentType": 5126,
      "count": 24,
      "max": [
        1,
        1,
        1
      ],
      "min": [
        -1,
        -1,
        -1
      ],
      "type": "VEC3"
    },
    {
      "bufferView": 0,
      "componentType": 5125,
      "count": 36,
      "max": [
        23
      ],
      "min": [
        0
      ],
      "type": "SCALAR"
    },
    {
      "bufferView": 1,
      "byteOffset": 576,
      "componentType": 5126,
      "count": 24,
      "max": [
        1,
        1,
        2.0032999515533447
      ],
      "min": [
        -1,
        -1,
        0.0032999999821186066
      ],
      "type": "VEC3"
    },
    {
      "bufferView": 1,
      "byteOffset": 864,
      "componentType": 5126,
      "count": 24,
      "max": [
        1,
        1,
        1
      ],
      "min": [
        -1,
        -1,
        -1
      ],
      "type": "VEC3"
    },
    {
      "bufferView": 0,
      "byteOffset": 144,
      "componentType": 5125,
      "count": 36,
      "max": [
        23
      ],
      "min": [
        0
      ],
      "type": "SCALAR"
    },
    {
      "bufferView": 1,
      "byteOffset": 1152,
      "componentType": 5126,
      "count": 24,
      "max": [
        1,
        1,
        2.0032999515533447
      ],
      "min": [
        -1,
        -1,
        0.0032999999821186066
      ],
      "type": "VEC3"
    },
    {
      "bufferView": 1,
      "byteOffset": 1440,
      "componentType": 5126,
      "count": 24,
      "max": [
        1,
        1,
        1
      ],
      "min": [
        -1,
        -1,
        -1
      ],
      "type": "VEC3"
    },
    {
      "bufferView": 0,
      "byteOffset": 288,
      "componentType": 5125,
      "count": 36,
      "max": [
        23
      ],
      "min": [
        0
      ],
      "type": "SCALAR"
    },
    {
      "bufferView": 1,
      "byteOffset": 1728,
      "componentType": 5126,
      "count": 164,
      "max": [
        21.207799911499023,
        1.999459981918335,
        6.9912099838256836
      ],
      "min": [
        -0.94651997089385986,
        -0.00053999997908249497,
        0.0013500000350177288
      ],
      "type": "VEC3"
    },
    {
      "bufferView": 1,
      "byteOffset": 3696,
      "componentType": 5126,
      "count": 164,
      "max": [
        1,
        1,
        1
      ],
      "min": [
        -1,
        -1,
        -1
      ],
      "type": "VEC3"
    },
    {
      "bufferView": 0,
      "byteOffset": 432,
      "componentType": 5125,
      "count": 354,
      "max": [
        163
      ],
      "min": [
        0
      ],
      "type": "SCALAR"
    }
  ],
  "asset": {
    "extras": {
      "author": "cig3d (https://sketchfab.com/cig3d)",
      "license": "CC-BY-4.0 (http://creativecommons.org/licenses/by/4.0/)",
      "source": "https://sketchfab.com/3d-models/statistic-charts-with-arrow-86f9238bdaf44e098b6da4d82ee1861f",
      "title": "Statistic Charts With Arrow"
    },
    "generator": "Sketchfab-6.33.0",
    "version": "2.0"
  },
  "bufferViews": [
    {
      "buffer": 0,
      "byteLength": 1848,
      "byteOffset": 0,
      "name": "floatBufferViews",
      "target": 34963
    },
    {
      "buffer": 0,
      "byteLength": 5664,
      "byteOffset": 1848,
      "byteStride": 12,
      "name": "floatBufferViews",
      "target": 34962
    }
  ],
  "buffers": [
    {
      "byteLength": 7512,
      "uri": "scene.bin"
    }
  ],
  "materials": [
    {
      "doubleSided": true,
      "name": "Material.001",
      "pbrMetallicRoughness": {
        "baseColorFactor": [
          1,
          1,
          1,
          1
        ],
        "metallicFactor": 0,
        "roughnessFactor": 0.59999999999999998
      }
    },
    {
      "doubleSided": true,
      "emissiveFactor": [
        0,
        0,
        0
      ],
      "name": "Material.004",
      "pbrMetallicRoughness": {
        "baseColorFactor": [
          0.58061352641304609,
          0.12209514561437285,
          0.58598204532238896,
          1
        ],
        "metallicFactor": 0,
        "roughnessFactor": 0.59999999999999998
      }
    },
    {
      "doubleSided": true,
      "emissiveFactor": [
        0,
        0,
        0
      ],
      "name": "Material.003",
      "pbrMetallicRoughness": {
        "baseColorFactor": [
          0.16713552724026925,
          0.12257610742116132,
          0.52313996140867403,
          1
        ],
        "metallicFactor": 0,
        "roughnessFactor": 0.59999999999999998
      }
    },
    {
      "doubleSided": true,
      "emissiveFactor": [
        0,
        0,
        0
      ],
      "name": "Material.002",
      "pbrMetallicRoughness": {
        "baseColorFactor": [
          0.47871509311668703,
          0.40941110267357672,
          0.036087745965834639,
          1
        ],
        "metallicFactor": 0,
        "roughnessFactor": 0.59999999999999998
      }
    }
  ],
  "meshes": [
    {
      "name": "Cube_0",
      "primitives": [
        {
          "attributes": {
            "NORMAL": 1,
            "POSITION": 0
          },
          "indices": 2,
          "material": 3,
          "mode": 4
        }
      ]
    },
    {
      "name": "Cube.001_0",
      "primitives": [
        {
          "attributes": {
            "NORMAL": 4,
            "POSITION": 3
          },
          "indices": 5,
          "material": 2,
          "mode": 4
        }
      ]
    },
    {
      "name": "Cube.002_0",
      "primitives": [
        {
          "attributes": {
            "NORMAL": 7,
            "POSITION": 6
          },
          "indices": 8,
          "material": 1,
          "mode": 4
        }
      ]
    },
    {
      "name": "Cube.003_0",
      "primitives": [
        {
          "attributes": {
            "NORMAL": 10,
            "POSITION": 9
          },
          "indices": 11,
          "material": 0,
          "mode": 4
        }
      ]
    }
  ],
  "nodes": [
    {
      "children": [
        1
      ],
      "name": "RootNode (gltf orientation matrix)",
      "rotation": [
        -0.70710678118654746,
        -0,
        -0,
        0.70710678118654757
      ]
    },
    {
      "children": [
        2
      ],
      "name": "RootNode (model correction matrix)"
    },
    {
      "children": [
        3,
        5,
        7,
        9
      ],
      "name": "Root"
    },
    {
      "children": [
        4
      ],
      "matrix": [
        0.32400000000000007,
        0,
        0,
        0,
        0,
        0.32400000000000007,
        0,
        0,
        0,
        0,
        0.27865000000000001,
        0,
        -0.24805000000000002,
        0,
        0,
        1
      ],
      "name": "Cube"
    },
    {
      "mesh": 0,
      "name": "Cube_0"
    },
    {
      "children": [
        6
      ],
      "matrix": [
        0.32400000000000007,
        0,
        0,
        0,
        0,
        0.32400000000000007,
        0,
        0,
        0,
        0,
        0.52865000000000006,
        0,
        0.60724000000000011,
        0,
        0,
        1
      ],
      "name": "Cube.001"
    },
    {
      "mesh": 1,
      "name": "Cube.001_0"
    },
    {
      "children": [
        8
      ],
      "matrix": [
        0.32400000000000007,
        0,
        0,
        0,
        0,
        0.32400000000000007,
        0,
        0,
        0,
        0,
        0.77865000000000006,
        0,
        1.4426599999999998,
        0,
        0,
        1
      ],
      "name": "Cube.002"
    },
    {
      "mesh": 2,
      "name": "Cube.002_0"
    },
    {
      "children": [
        10
      ],
      "matrix": [
        0.075340000000000004,
        0,
        -0.048240000000000005,
        0,
        0,
        0.074810000000000001,
        0,
        0,
        0.31036000000000008,
        0,
        0.48471000000000003,
        0,
        -1.47614,
        -0.053160000000000013,
        0.21145000000000003,
        1
      ],
      "name": "Cube.003"
    },
    {
      "mesh": 3,
      "name": "Cube.003_0"
    }
  ],
  "scene": 0,
  "scenes": [
    {
      "name": "OSG_Scene",
      "nodes": [
        0
      ]
    }
  ]
}

