{
  "accessors": [
    {
      "bufferView": 2,
      "componentType": 5126,
      "count": 2096,
      "max": [
        6.926158428192139,
        9.297066688537598,
        1.027631402015686
      ],
      "min": [
        6.510985851287842,
        1.493419885635376,
        -1.0255801677703857
      ],
      "type": "VEC3"
    },
    {
      "bufferView": 2,
      "byteOffset": 25152,
      "componentType": 5126,
      "count": 2096,
      "max": [
        1.0,
        0.999990701675415,
        0.9999274015426636
      ],
      "min": [
        0.004333720076829195,
        -0.999990701675415,
        -0.9999274015426636
      ],
      "type": "VEC3"
    },
    {
      "bufferView": 1,
      "componentType": 5126,
      "count": 2096,
      "max": [
        0.9452332258224487,
        0.9796357154846191
      ],
      "min": [
        0.004739433992654085,
        0.032720714807510376
      ],
      "type": "VEC2"
    },
    {
      "bufferView": 0,
      "componentType": 5125,
      "count": 10752,
      "type": "SCALAR"
    },
    {
      "bufferView": 2,
      "byteOffset": 50304,
      "componentType": 5126,
      "count": 5274,
      "max": [
        6.663329124450684,
        13.881650924682617,
        2.9854063987731934
      ],
      "min": [
        -6.763083457946777,
        -14.159734725952148,
        -2.9646172523498535
      ],
      "type": "VEC3"
    },
    {
      "bufferView": 2,
      "byteOffset": 113592,
      "componentType": 5126,
      "count": 5274,
      "max": [
        0.9999117851257324,
        0.999189555644989,
        1.0
      ],
      "min": [
        -0.9999493360519409,
        -0.9996346831321716,
        -1.0
      ],
      "type": "VEC3"
    },
    {
      "bufferView": 3,
      "componentType": 5126,
      "count": 5274,
      "max": [
        1.0,
        1.0,
        0.9499735236167908,
        1.0
      ],
      "min": [
        -0.9951844811439514,
        -0.9951847195625305,
        -0.9518446922302246,
        -1.0
      ],
      "type": "VEC4"
    },
    {
      "bufferView": 1,
      "byteOffset": 16768,
      "componentType": 5126,
      "count": 5274,
      "max": [
        0.9839193820953369,
        0.9782488346099854
      ],
      "min": [
        0.011790275573730469,
        0.050609737634658813
      ],
      "type": "VEC2"
    },
    {
      "bufferView": 1,
      "byteOffset": 58960,
      "componentType": 5126,
      "count": 5274,
      "max": [
        0.9839193820953369,
        0.9782488346099854
      ],
      "min": [
        0.011790275573730469,
        0.050609737634658813
      ],
      "type": "VEC2"
    },
    {
      "bufferView": 1,
      "byteOffset": 101152,
      "componentType": 5126,
      "count": 5274,
      "max": [
        0.9839193820953369,
        0.9782488346099854
      ],
      "min": [
        0.011790275573730469,
        0.050609737634658813
      ],
      "type": "VEC2"
    },
    {
      "bufferView": 0,
      "byteOffset": 43008,
      "componentType": 5125,
      "count": 8262,
      "type": "SCALAR"
    },
    {
      "bufferView": 2,
      "byteOffset": 176880,
      "componentType": 5126,
      "count": 103,
      "max": [
        0.5454239845275879,
        -8.424097061157227,
        0.23085080087184906
      ],
      "min": [
        -0.6257634162902832,
        -13.80653190612793,
        -0.33731597661972046
      ],
      "type": "VEC3"
    },
    {
      "bufferView": 2,
      "byteOffset": 178116,
      "componentType": 5126,
      "count": 103,
      "max": [
        0.6977526545524597,
        0.7071067690849304,
        0.9985662698745728
      ],
      "min": [
        -0.6977526545524597,
        -0.9987936615943909,
        -0.9985662698745728
      ],
      "type": "VEC3"
    },
    {
      "bufferView": 1,
      "byteOffset": 143344,
      "componentType": 5126,
      "count": 103,
      "max": [
        0.875,
        1.0
      ],
      "min": [
        0.125,
        0.0015740394592285156
      ],
      "type": "VEC2"
    },
    {
      "bufferView": 0,
      "byteOffset": 76056,
      "componentType": 5125,
      "count": 420,
      "type": "SCALAR"
    },
    {
      "bufferView": 2,
      "byteOffset": 179352,
      "componentType": 5126,
      "count": 324,
      "max": [
        0.7935318946838379,
        11.898401260375977,
        -1.7265444993972778
      ],
      "min": [
        -0.8687748908996582,
        8.250179290771484,
        -3.4328370094299316
      ],
      "type": "VEC3"
    },
    {
      "bufferView": 2,
      "byteOffset": 183240,
      "componentType": 5126,
      "count": 324,
      "max": [
        0.997654378414154,
        0.997654378414154,
        -0.06845330446958542
      ],
      "min": [
        -0.997654378414154,
        -0.997654378414154,
        -1.0
      ],
      "type": "VEC3"
    },
    {
      "bufferView": 1,
      "byteOffset": 144168,
      "componentType": 5126,
      "count": 324,
      "max": [
        1.0,
        1.0
      ],
      "min": [
        0.0,
        0.053572192788124084
      ],
      "type": "VEC2"
    },
    {
      "bufferView": 1,
      "byteOffset": 146760,
      "componentType": 5126,
      "count": 324,
      "max": [
        1.0,
        1.0
      ],
      "min": [
        0.0,
        0.053572192788124084
      ],
      "type": "VEC2"
    },
    {
      "bufferView": 0,
      "byteOffset": 77736,
      "componentType": 5125,
      "count": 948,
      "type": "SCALAR"
    }
  ],
  "asset": {
    "extras": {
      "author": "gaelinix (https://sketchfab.com/gaelinix)",
      "license": "CC-BY-4.0 (http://creativecommons.org/licenses/by/4.0/)",
      "source": "https://sketchfab.com/3d-models/smartphone-lowpoly-6e9fecc83b904ec3b290f599dfb7804b",
      "title": "Smartphone Lowpoly"
    },
    "generator": "Sketchfab-11.67.0",
    "version": "2.0"
  },
  "bufferViews": [
    {
      "buffer": 0,
      "byteLength": 81528,
      "name": "floatBufferViews",
      "target": 34963
    },
    {
      "buffer": 0,
      "byteLength": 149352,
      "byteOffset": 81528,
      "byteStride": 8,
      "name": "floatBufferViews",
      "target": 34962
    },
    {
      "buffer": 0,
      "byteLength": 187128,
      "byteOffset": 230880,
      "byteStride": 12,
      "name": "floatBufferViews",
      "target": 34962
    },
    {
      "buffer": 0,
      "byteLength": 84384,
      "byteOffset": 418008,
      "byteStride": 16,
      "name": "floatBufferViews",
      "target": 34962
    }
  ],
  "buffers": [
    {
      "byteLength": 502392,
      "uri": "scene.bin"
    }
  ],
  "images": [
    {
      "uri": "textures/Material_baseColor.png"
    },
    {
      "uri": "textures/Material_normal.png"
    },
    {
      "uri": "textures/Material.007_baseColor.png"
    }
  ],
  "materials": [
    {
      "doubleSided": true,
      "name": "Material.003",
      "pbrMetallicRoughness": {
        "baseColorFactor": [
          0.365818,
          0.0207588,
          0.162346,
          1.0
        ],
        "metallicFactor": 0.0,
        "roughnessFactor": 0.9741849171077896
      }
    },
    {
      "doubleSided": true,
      "name": "Material",
      "normalTexture": {
        "index": 1,
        "texCoord": 1
      },
      "pbrMetallicRoughness": {
        "baseColorTexture": {
          "index": 0
        },
        "metallicFactor": 0.0,
        "roughnessFactor": 0.8040408205773457
      }
    },
    {
      "doubleSided": true,
      "name": "Material.002",
      "pbrMetallicRoughness": {
        "baseColorFactor": [
          0.00512593,
          0.00512593,
          0.00512593,
          1.0
        ],
        "metallicFactor": 0.0,
        "roughnessFactor": 0.9987295490669237
      }
    },
    {
      "doubleSided": true,
      "name": "Material.007",
      "pbrMetallicRoughness": {
        "baseColorTexture": {
          "index": 2
        },
        "metallicFactor": 0.0,
        "roughnessFactor": 0.8211145618000169
      }
    }
  ],
  "meshes": [
    {
      "name": "Cube.006_Material.003_0",
      "primitives": [
        {
          "attributes": {
            "NORMAL": 1,
            "POSITION": 0,
            "TEXCOORD_0": 2
          },
          "indices": 3,
          "material": 0,
          "mode": 4
        }
      ]
    },
    {
      "name": "Cube.006_Material_0",
      "primitives": [
        {
          "attributes": {
            "NORMAL": 5,
            "POSITION": 4,
            "TANGENT": 6,
            "TEXCOORD_0": 7,
            "TEXCOORD_1": 8,
            "TEXCOORD_2": 9
          },
          "indices": 10,
          "material": 1,
          "mode": 4
        }
      ]
    },
    {
      "name": "Cube.006_Material.002_0",
      "primitives": [
        {
          "attributes": {
            "NORMAL": 12,
            "POSITION": 11,
            "TEXCOORD_0": 13
          },
          "indices": 14,
          "material": 2,
          "mode": 4
        }
      ]
    },
    {
      "name": "Cube.006_Material.007_0",
      "primitives": [
        {
          "attributes": {
            "NORMAL": 16,
            "POSITION": 15,
            "TEXCOORD_0": 17,
            "TEXCOORD_1": 18
          },
          "indices": 19,
          "material": 3,
          "mode": 4
        }
      ]
    }
  ],
  "nodes": [
    {
      "children": [
        1
      ],
      "matrix": [
        1.0,
        0.0,
        0.0,
        0.0,
        0.0,
        2.220446049250313e-16,
        -1.0,
        0.0,
        0.0,
        1.0,
        2.220446049250313e-16,
        0.0,
        0.0,
        0.0,
        0.0,
        1.0
      ],
      "name": "Sketchfab_model"
    },
    {
      "children": [
        2
      ],
      "matrix": [
        0.009999999776482582,
        0.0,
        0.0,
        0.0,
        0.0,
        0.0,
        0.009999999776482582,
        0.0,
        0.0,
        -0.009999999776482582,
        0.0,
        0.0,
        0.0,
        0.0,
        0.0,
        1.0
      ],
      "name": "e5bee5cff6f44d5c8859ec6c6cea1f4e.fbx"
    },
    {
      "children": [
        3
      ],
      "name": "RootNode"
    },
    {
      "children": [
        4,
        5,
        6,
        7
      ],
      "matrix": [
        7.166767120361328,
        0.0,
        0.0,
        0.0,
        0.0,
        -1.1676145682923068e-06,
        -7.166767120361233,
        0.0,
        0.0,
        2.2944252490997012,
        -3.738093203971003e-07,
        0.0,
        0.0,
        0.0,
        0.0,
        1.0
      ],
      "name": "Cube.006"
    },
    {
      "mesh": 0,
      "name": "Cube.006_Material.003_0"
    },
    {
      "mesh": 1,
      "name": "Cube.006_Material_0"
    },
    {
      "mesh": 2,
      "name": "Cube.006_Material.002_0"
    },
    {
      "mesh": 3,
      "name": "Cube.006_Material.007_0"
    }
  ],
  "samplers": [
    {
      "magFilter": 9729,
      "minFilter": 9987,
      "wrapS": 10497,
      "wrapT": 10497
    }
  ],
  "scene": 0,
  "scenes": [
    {
      "name": "Sketchfab_Scene",
      "nodes": [
        0
      ]
    }
  ],
  "textures": [
    {
      "sampler": 0,
      "source": 0
    },
    {
      "sampler": 0,
      "source": 1
    },
    {
      "sampler": 0,
      "source": 2
    }
  ]
}
