{
  "accessors": [
    {
      "bufferView": 2,
      "componentType": 5126,
      "count": 33685,
      "max": [
        0.48466798663139343,
        1.4115860462188721,
        1.5301740169525146
      ],
      "min": [
        -0.47670099139213562,
        -1.6025359630584717,
        -0.03363100066781044
      ],
      "type": "VEC3"
    },
    {
      "bufferView": 2,
      "byteOffset": 404220,
      "componentType": 5126,
      "count": 33685,
      "max": [
        0.99995100498199463,
        0.9998592734336853,
        0.99959379434585571
      ],
      "min": [
        -0.99997055530548096,
        -0.99997889995574951,
        -0.99998748302459717
      ],
      "type": "VEC3"
    },
    {
      "bufferView": 3,
      "componentType": 5126,
      "count": 33685,
      "max": [
        0.99999880790710449,
        0.99994641542434692,
        0.99998795986175537,
        1
      ],
      "min": [
        -0.99994325637817383,
        -0.99995577335357666,
        -0.99996894598007202,
        -1
      ],
      "type": "VEC4"
    },
    {
      "bufferView": 1,
      "componentType": 5126,
      "count": 33685,
      "max": [
        0.99987500905990601,
        0.99031800031661987
      ],
      "min": [
        0.00012500000593718141,
        0.00012500000593718141
      ],
      "type": "VEC2"
    },
    {
      "bufferView": 0,
      "componentType": 5125,
      "count": 192522,
      "max": [
        33684
      ],
      "min": [
        0
      ],
      "type": "SCALAR"
    }
  ],
  "asset": {
    "extras": {
      "author": "DigitalLife3D (https://sketchfab.com/DigitalLife3D)",
      "license": "CC-BY-4.0 (http://creativecommons.org/licenses/by/4.0/)",
      "source": "https://sketchfab.com/3d-models/model-56b-southern-white-rhino-mesh-only-47a10d446a2942ca8fd7cbb0cc306b7e",
      "title": "Model 56B - Southern White Rhino - Mesh Only"
    },
    "generator": "Sketchfab-6.36.0",
    "version": "2.0"
  },
  "bufferViews": [
    {
      "buffer": 0,
      "byteLength": 770088,
      "byteOffset": 0,
      "name": "floatBufferViews",
      "target": 34963
    },
    {
      "buffer": 0,
      "byteLength": 269480,
      "byteOffset": 770088,
      "byteStride": 8,
      "name": "floatBufferViews",
      "target": 34962
    },
    {
      "buffer": 0,
      "byteLength": 808440,
      "byteOffset": 1039568,
      "byteStride": 12,
      "name": "floatBufferViews",
      "target": 34962
    },
    {
      "buffer": 0,
      "byteLength": 538960,
      "byteOffset": 1848008,
      "byteStride": 16,
      "name": "floatBufferViews",
      "target": 34962
    }
  ],
  "buffers": [
    {
      "byteLength": 2386968,
      "uri": "scene.bin"
    }
  ],
  "materials": [
    {
      "doubleSided": true,
      "name": "body_reduce",
      "pbrMetallicRoughness": {
        "baseColorFactor": [
          1,
          1,
          1,
          1
        ],
        "metallicFactor": 0,
        "roughnessFactor": 0.59999999999999998
      }
    }
  ],
  "meshes": [
    {
      "primitives": [
        {
          "attributes": {
            "NORMAL": 1,
            "POSITION": 0,
            "TANGENT": 2,
            "TEXCOORD_0": 3
          },
          "indices": 4,
          "material": 0,
          "mode": 4
        }
      ]
    }
  ],
  "nodes": [
    {
      "children": [
        1
      ],
      "name": "RootNode (gltf orientation matrix)",
      "rotation": [
        -0.70710678118654746,
        -0,
        -0,
        0.70710678118654757
      ]
    },
    {
      "children": [
        2
      ],
      "name": "RootNode (model correction matrix)"
    },
    {
      "children": [
        3
      ],
      "name": "rhinoThrd_animate_eve_023_fixedUnder.obj.cleaner.materialmerger.gles"
    },
    {
      "mesh": 0,
      "name": ""
    }
  ],
  "scene": 0,
  "scenes": [
    {
      "name": "OSG_Scene",
      "nodes": [
        0
      ]
    }
  ]
}

