{
  "accessors": [
    {
      "bufferView": 2,
      "componentType": 5126,
      "count": 28160,
      "max": [
        1.1876885890960693,
        0.10000000894069672,
        1.1876884698867798
      ],
      "min": [
        -1.1876885890960693,
        -0.10000000894069672,
        -1.1876884698867798
      ],
      "type": "VEC3"
    },
    {
      "bufferView": 2,
      "byteOffset": 337920,
      "componentType": 5126,
      "count": 28160,
      "max": [
        1,
        1,
        1
      ],
      "min": [
        -1,
        -1,
        -1
      ],
      "type": "VEC3"
    },
    {
      "bufferView": 3,
      "componentType": 5126,
      "count": 28160,
      "max": [
        0.99869376420974731,
        1,
        1,
        1
      ],
      "min": [
        -0.99985438585281372,
        -1,
        -0.99985349178314209,
        -1
      ],
      "type": "VEC4"
    },
    {
      "bufferView": 1,
      "componentType": 5126,
      "count": 28160,
      "max": [
        0.99913126230239868,
        0.99913132190704346
      ],
      "min": [
        0.00086867512436583638,
        0.00086869503138586879
      ],
      "type": "VEC2"
    },
    {
      "bufferView": 0,
      "componentType": 5125,
      "count": 168960,
      "max": [
        28159
      ],
      "min": [
        0
      ],
      "type": "SCALAR"
    },
    {
      "bufferView": 2,
      "byteOffset": 675840,
      "componentType": 5126,
      "count": 136,
      "max": [
        0.38481414318084717,
        0.075000002980232239,
        0.34641015529632568
      ],
      "min": [
        -0.38481426239013672,
        -0.075000002980232239,
        -0.34641027450561523
      ],
      "type": "VEC3"
    },
    {
      "bufferView": 2,
      "byteOffset": 677472,
      "componentType": 5126,
      "count": 136,
      "max": [
        0.89825248718261719,
        1,
        1
      ],
      "min": [
        -1,
        -1,
        -1
      ],
      "type": "VEC3"
    },
    {
      "bufferView": 3,
      "byteOffset": 450560,
      "componentType": 5126,
      "count": 136,
      "max": [
        1,
        0.23251181840896606,
        1,
        1
      ],
      "min": [
        -1,
        -0.23460452258586884,
        -0.95183920860290527,
        1
      ],
      "type": "VEC4"
    },
    {
      "bufferView": 1,
      "byteOffset": 225280,
      "componentType": 5126,
      "count": 136,
      "max": [
        1.0040596723556519,
        0.9483191967010498
      ],
      "min": [
        -0.004059965256601572,
        -2.1552352905273438
      ],
      "type": "VEC2"
    },
    {
      "bufferView": 0,
      "byteOffset": 675840,
      "componentType": 5125,
      "count": 348,
      "max": [
        135
      ],
      "min": [
        0
      ],
      "type": "SCALAR"
    },
    {
      "bufferView": 2,
      "byteOffset": 679104,
      "componentType": 5126,
      "count": 1124,
      "max": [
        0.99001979827880859,
        1,
        0.99001979827880859
      ],
      "min": [
        -0.99001979827880859,
        -1,
        -0.99001979827880859
      ],
      "type": "VEC3"
    },
    {
      "bufferView": 2,
      "byteOffset": 692592,
      "componentType": 5126,
      "count": 1124,
      "max": [
        0.9992486834526062,
        1,
        0.9992484450340271
      ],
      "min": [
        -0.99924850463867188,
        -1,
        -0.9992484450340271
      ],
      "type": "VEC3"
    },
    {
      "bufferView": 3,
      "byteOffset": 452736,
      "componentType": 5126,
      "count": 1124,
      "max": [
        1,
        0.14108870923519135,
        0.99997776746749878,
        1
      ],
      "min": [
        -0.999977707862854,
        -0.14121994376182556,
        -0.99998235702514648,
        1
      ],
      "type": "VEC4"
    },
    {
      "bufferView": 1,
      "byteOffset": 226368,
      "componentType": 5126,
      "count": 1124,
      "max": [
        0.87212210893630981,
        1.7666493654251099
      ],
      "min": [
        0.12789152562618256,
        -0.76966571807861328
      ],
      "type": "VEC2"
    },
    {
      "bufferView": 0,
      "byteOffset": 677232,
      "componentType": 5125,
      "count": 4788,
      "max": [
        1123
      ],
      "min": [
        0
      ],
      "type": "SCALAR"
    },
    {
      "bufferView": 2,
      "byteOffset": 706080,
      "componentType": 5126,
      "count": 16896,
      "max": [
        0.68296277523040771,
        0.10000000894069672,
        0.68296301364898682
      ],
      "min": [
        -0.68296289443969727,
        -0.10000000894069672,
        -0.68296289443969727
      ],
      "type": "VEC3"
    },
    {
      "bufferView": 2,
      "byteOffset": 908832,
      "componentType": 5126,
      "count": 16896,
      "max": [
        1,
        0.99999964237213135,
        1
      ],
      "min": [
        -1,
        -0.99999958276748657,
        -1
      ],
      "type": "VEC3"
    },
    {
      "bufferView": 3,
      "byteOffset": 470720,
      "componentType": 5126,
      "count": 16896,
      "max": [
        0.9939306378364563,
        1,
        0.95299321413040161,
        1
      ],
      "min": [
        -0.31089812517166138,
        -1,
        -0.57856696844100952,
        -1
      ],
      "type": "VEC4"
    },
    {
      "bufferView": 1,
      "byteOffset": 235360,
      "componentType": 5126,
      "count": 16896,
      "max": [
        1.2418514490127563,
        1.2414705753326416
      ],
      "min": [
        -0.24181386828422546,
        -0.24168854951858521
      ],
      "type": "VEC2"
    },
    {
      "bufferView": 0,
      "byteOffset": 696384,
      "componentType": 5125,
      "count": 101376,
      "max": [
        16895
      ],
      "min": [
        0
      ],
      "type": "SCALAR"
    },
    {
      "bufferView": 2,
      "byteOffset": 1111584,
      "componentType": 5126,
      "count": 28160,
      "max": [
        1.3852267265319824,
        0.10000000894069672,
        1.385226845741272
      ],
      "min": [
        -1.385225772857666,
        -0.10000000894069672,
        -1.3852255344390869
      ],
      "type": "VEC3"
    },
    {
      "bufferView": 2,
      "byteOffset": 1449504,
      "componentType": 5126,
      "count": 28160,
      "max": [
        1,
        0.99999994039535522,
        1
      ],
      "min": [
        -1,
        -0.99999994039535522,
        -1
      ],
      "type": "VEC3"
    },
    {
      "bufferView": 3,
      "byteOffset": 741056,
      "componentType": 5126,
      "count": 28160,
      "max": [
        1,
        0.99999988079071045,
        0.8567165732383728,
        1
      ],
      "min": [
        -0.39127454161643982,
        -0.99999988079071045,
        -0.74538862705230713,
        -1
      ],
      "type": "VEC4"
    },
    {
      "bufferView": 1,
      "byteOffset": 370528,
      "componentType": 5126,
      "count": 28160,
      "max": [
        0.99886095523834229,
        0.99946767091751099
      ],
      "min": [
        0.00063699536258354783,
        0.00074896356090903282
      ],
      "type": "VEC2"
    },
    {
      "bufferView": 0,
      "byteOffset": 1101888,
      "componentType": 5125,
      "count": 168960,
      "max": [
        28159
      ],
      "min": [
        0
      ],
      "type": "SCALAR"
    },
    {
      "bufferView": 2,
      "byteOffset": 1787424,
      "componentType": 5126,
      "count": 1701,
      "max": [
        0.39999997615814209,
        0.39999985694885254,
        0.15067984163761139
      ],
      "min": [
        -0.40000027418136597,
        -0.40000033378601074,
        -0.10049346089363098
      ],
      "type": "VEC3"
    },
    {
      "bufferView": 2,
      "byteOffset": 1807836,
      "componentType": 5126,
      "count": 1701,
      "max": [
        1,
        1,
        1
      ],
      "min": [
        -1,
        -1,
        -1
      ],
      "type": "VEC3"
    },
    {
      "bufferView": 3,
      "byteOffset": 1191616,
      "componentType": 5126,
      "count": 1701,
      "max": [
        0.99329733848571777,
        0.39016076922416687,
        0.99999922513961792,
        1
      ],
      "min": [
        -0.075502075254917145,
        -0.45082938671112061,
        -0.99999988079071045,
        -1
      ],
      "type": "VEC4"
    },
    {
      "bufferView": 1,
      "byteOffset": 595808,
      "componentType": 5126,
      "count": 1701,
      "max": [
        0.99799329042434692,
        1
      ],
      "min": [
        0,
        1.5394162389270605e-08
      ],
      "type": "VEC2"
    },
    {
      "bufferView": 0,
      "byteOffset": 1777728,
      "componentType": 5125,
      "count": 5100,
      "max": [
        1700
      ],
      "min": [
        0
      ],
      "type": "SCALAR"
    },
    {
      "bufferView": 2,
      "byteOffset": 1828248,
      "componentType": 5126,
      "count": 1124,
      "max": [
        0.99002170562744141,
        1,
        0.99001979827880859
      ],
      "min": [
        -0.99001979827880859,
        -1,
        -0.99001979827880859
      ],
      "type": "VEC3"
    },
    {
      "bufferView": 2,
      "byteOffset": 1841736,
      "componentType": 5126,
      "count": 1124,
      "max": [
        0.9992489218711853,
        1,
        0.9992484450340271
      ],
      "min": [
        -0.99924862384796143,
        -1,
        -0.9992484450340271
      ],
      "type": "VEC3"
    },
    {
      "bufferView": 3,
      "byteOffset": 1218832,
      "componentType": 5126,
      "count": 1124,
      "max": [
        0.99999886751174927,
        0.14101578295230865,
        0.99998259544372559,
        1
      ],
      "min": [
        -0.99998259544372559,
        -0.14126533269882202,
        -0.99998688697814941,
        1
      ],
      "type": "VEC4"
    },
    {
      "bufferView": 1,
      "byteOffset": 609416,
      "componentType": 5126,
      "count": 1124,
      "max": [
        0.87314808368682861,
        1.784379243850708
      ],
      "min": [
        0.12685194611549377,
        -0.78738534450531006
      ],
      "type": "VEC2"
    },
    {
      "bufferView": 0,
      "byteOffset": 1798128,
      "componentType": 5125,
      "count": 4788,
      "max": [
        1123
      ],
      "min": [
        0
      ],
      "type": "SCALAR"
    },
    {
      "bufferView": 4,
      "componentType": 5126,
      "count": 149,
      "max": [
        5
      ],
      "min": [
        0.041666667908430099
      ],
      "type": "SCALAR"
    },
    {
      "bufferView": 5,
      "componentType": 5126,
      "count": 149,
      "max": [
        0.70710676908493042,
        0.70708459615707397,
        0.70708459615707397,
        0.70710676908493042
      ],
      "min": [
        -0.49402493238449097,
        -0.4953586757183075,
        -0.4953586757183075,
        -0.49402493238449097
      ],
      "type": "VEC4"
    },
    {
      "bufferView": 4,
      "byteOffset": 596,
      "componentType": 5126,
      "count": 149,
      "max": [
        5
      ],
      "min": [
        0.041666667908430099
      ],
      "type": "SCALAR"
    },
    {
      "bufferView": 5,
      "byteOffset": 2384,
      "componentType": 5126,
      "count": 149,
      "max": [
        0.70710635185241699,
        0.70705503225326538,
        0.70705503225326538,
        0.70710635185241699
      ],
      "min": [
        -0.48719146847724915,
        -0.49944970011711121,
        -0.49944970011711121,
        -0.48719146847724915
      ],
      "type": "VEC4"
    },
    {
      "bufferView": 4,
      "byteOffset": 1192,
      "componentType": 5126,
      "count": 149,
      "max": [
        5
      ],
      "min": [
        0.041666667908430099
      ],
      "type": "SCALAR"
    },
    {
      "bufferView": 5,
      "byteOffset": 4768,
      "componentType": 5126,
      "count": 149,
      "max": [
        0.70710676908493042,
        0.70708459615707397,
        0.70708459615707397,
        0.70710676908493042
      ],
      "min": [
        -0.49402493238449097,
        -0.4953586757183075,
        -0.4953586757183075,
        -0.49402493238449097
      ],
      "type": "VEC4"
    }
  ],
  "animations": [
    {
      "channels": [
        {
          "sampler": 0,
          "target": {
            "node": 5,
            "path": "rotation"
          }
        },
        {
          "sampler": 1,
          "target": {
            "node": 11,
            "path": "rotation"
          }
        },
        {
          "sampler": 2,
          "target": {
            "node": 13,
            "path": "rotation"
          }
        }
      ],
      "name": "Take 001",
      "samplers": [
        {
          "input": 35,
          "interpolation": "LINEAR",
          "output": 36
        },
        {
          "input": 37,
          "interpolation": "LINEAR",
          "output": 38
        },
        {
          "input": 39,
          "interpolation": "LINEAR",
          "output": 40
        }
      ]
    }
  ],
  "asset": {
    "extras": {
      "author": "yakuphan (https://sketchfab.com/yakuphan)",
      "license": "CC-BY-NC-4.0 (http://creativecommons.org/licenses/by-nc/4.0/)",
      "source": "https://sketchfab.com/3d-models/gears-d089d6af1f474a588c6260f479ec5874",
      "title": "Gears"
    },
    "generator": "Sketchfab-6.36.0",
    "version": "2.0"
  },
  "bufferViews": [
    {
      "buffer": 0,
      "byteLength": 1817280,
      "byteOffset": 0,
      "name": "floatBufferViews",
      "target": 34963
    },
    {
      "buffer": 0,
      "byteLength": 618408,
      "byteOffset": 1817280,
      "byteStride": 8,
      "name": "floatBufferViews",
      "target": 34962
    },
    {
      "buffer": 0,
      "byteLength": 1855224,
      "byteOffset": 2435688,
      "byteStride": 12,
      "name": "floatBufferViews",
      "target": 34962
    },
    {
      "buffer": 0,
      "byteLength": 1236816,
      "byteOffset": 4290912,
      "byteStride": 16,
      "name": "floatBufferViews",
      "target": 34962
    },
    {
      "buffer": 0,
      "byteLength": 1788,
      "byteOffset": 5527728,
      "name": "floatBufferViews"
    },
    {
      "buffer": 0,
      "byteLength": 7152,
      "byteOffset": 5529516,
      "byteStride": 16,
      "name": "floatBufferViews"
    }
  ],
  "buffers": [
    {
      "byteLength": 5536668,
      "uri": "scene.bin"
    }
  ],
  "materials": [
    {
      "doubleSided": true,
      "emissiveFactor": [
        0,
        0,
        0
      ],
      "name": "blinn3",
      "pbrMetallicRoughness": {
        "baseColorFactor": [
          1,
          1,
          1,
          1
        ],
        "metallicFactor": 1,
        "roughnessFactor": 0.25171493902439024
      }
    },
    {
      "doubleSided": true,
      "emissiveFactor": [
        0,
        0,
        0
      ],
      "name": "phong1",
      "pbrMetallicRoughness": {
        "baseColorFactor": [
          0.5,
          0.5,
          0.5,
          1
        ],
        "metallicFactor": 1,
        "roughnessFactor": 0.69683689024390238
      }
    },
    {
      "doubleSided": true,
      "emissiveFactor": [
        0,
        0,
        0
      ],
      "name": "blinn1",
      "pbrMetallicRoughness": {
        "baseColorFactor": [
          0.76656141898030827,
          0.76656141898030827,
          0.76656141898030827,
          1
        ],
        "metallicFactor": 1,
        "roughnessFactor": 0.93943736178313975
      }
    },
    {
      "doubleSided": true,
      "name": "phong2",
      "pbrMetallicRoughness": {
        "baseColorFactor": [
          0.5,
          0.5,
          0.5,
          1
        ],
        "metallicFactor": 1,
        "roughnessFactor": 0.42244664634146339
      }
    },
    {
      "doubleSided": true,
      "emissiveFactor": [
        0,
        0,
        0
      ],
      "name": "blinn2",
      "pbrMetallicRoughness": {
        "baseColorFactor": [
          0.19580400000000001,
          0.19580400000000001,
          0.19580400000000001,
          1
        ],
        "metallicFactor": 1,
        "roughnessFactor": 0.15415396341463414
      }
    },
    {
      "doubleSided": true,
      "emissiveFactor": [
        0,
        0,
        0
      ],
      "name": "phongE1",
      "pbrMetallicRoughness": {
        "baseColorFactor": [
          0.43425069249245785,
          0.43425069249245785,
          0.43425069249245785,
          1
        ],
        "metallicFactor": 1,
        "roughnessFactor": 0.45903201219512196
      }
    }
  ],
  "meshes": [
    {
      "name": "pGear1_blinn3_0",
      "primitives": [
        {
          "attributes": {
            "NORMAL": 1,
            "POSITION": 0,
            "TANGENT": 2,
            "TEXCOORD_0": 3
          },
          "indices": 4,
          "material": 0,
          "mode": 4
        }
      ]
    },
    {
      "name": "pCylinder1_phong1_0",
      "primitives": [
        {
          "attributes": {
            "NORMAL": 6,
            "POSITION": 5,
            "TANGENT": 7,
            "TEXCOORD_0": 8
          },
          "indices": 9,
          "material": 1,
          "mode": 4
        }
      ]
    },
    {
      "name": "pCylinder2_blinn1_0",
      "primitives": [
        {
          "attributes": {
            "NORMAL": 11,
            "POSITION": 10,
            "TANGENT": 12,
            "TEXCOORD_0": 13
          },
          "indices": 14,
          "material": 2,
          "mode": 4
        }
      ]
    },
    {
      "name": "pGear2_phong2_0",
      "primitives": [
        {
          "attributes": {
            "NORMAL": 16,
            "POSITION": 15,
            "TANGENT": 17,
            "TEXCOORD_0": 18
          },
          "indices": 19,
          "material": 3,
          "mode": 4
        }
      ]
    },
    {
      "name": "pGear3_blinn2_0",
      "primitives": [
        {
          "attributes": {
            "NORMAL": 21,
            "POSITION": 20,
            "TANGENT": 22,
            "TEXCOORD_0": 23
          },
          "indices": 24,
          "material": 4,
          "mode": 4
        }
      ]
    },
    {
      "name": "pPipe2_phongE1_0",
      "primitives": [
        {
          "attributes": {
            "NORMAL": 26,
            "POSITION": 25,
            "TANGENT": 27,
            "TEXCOORD_0": 28
          },
          "indices": 29,
          "material": 5,
          "mode": 4
        }
      ]
    },
    {
      "name": "pCylinder3_blinn1_0",
      "primitives": [
        {
          "attributes": {
            "NORMAL": 31,
            "POSITION": 30,
            "TANGENT": 32,
            "TEXCOORD_0": 33
          },
          "indices": 34,
          "material": 2,
          "mode": 4
        }
      ]
    }
  ],
  "nodes": [
    {
      "children": [
        1
      ],
      "name": "RootNode (gltf orientation matrix)",
      "rotation": [
        -0.70710678118654746,
        -0,
        -0,
        0.70710678118654757
      ]
    },
    {
      "children": [
        2
      ],
      "name": "RootNode (model correction matrix)"
    },
    {
      "children": [
        3
      ],
      "matrix": [
        1,
        0,
        0,
        0,
        0,
        0,
        1,
        0,
        0,
        -1,
        0,
        0,
        0,
        0,
        0,
        1
      ],
      "name": "gears6.fbx"
    },
    {
      "children": [
        4
      ],
      "name": ""
    },
    {
      "children": [
        5,
        11,
        13,
        19,
        21,
        23
      ],
      "name": "RootNode"
    },
    {
      "children": [
        6,
        7,
        9
      ],
      "name": "pGear1",
      "rotation": [
        0.62000179290771484,
        0.33999675512313843,
        0.33999675512313843,
        0.62000179290771484
      ],
      "translation": [
        -1.75,
        2,
        0
      ]
    },
    {
      "mesh": 0,
      "name": "pGear1_blinn3_0"
    },
    {
      "children": [
        8
      ],
      "name": "pCylinder1",
      "translation": [
        0,
        0.17499999701976776,
        0
      ]
    },
    {
      "mesh": 1,
      "name": "pCylinder1_phong1_0"
    },
    {
      "children": [
        10
      ],
      "name": "pCylinder2",
      "scale": [
        0.20000000298023224,
        1,
        0.20000000298023224
      ],
      "translation": [
        0,
        -0.64719414710998535,
        0
      ]
    },
    {
      "mesh": 2,
      "name": "pCylinder2_blinn1_0"
    },
    {
      "children": [
        12
      ],
      "name": "pGear2",
      "rotation": [
        0.53849560022354126,
        -0.45828208327293396,
        -0.45828208327293396,
        0.53849560022354126
      ],
      "translation": [
        0,
        2,
        0
      ]
    },
    {
      "mesh": 3,
      "name": "pGear2_phong2_0"
    },
    {
      "children": [
        14,
        15,
        17
      ],
      "name": "pGear3",
      "rotation": [
        0.62000179290771484,
        0.33999675512313843,
        0.33999675512313843,
        0.62000179290771484
      ],
      "translation": [
        1.9500000476837158,
        2,
        0
      ]
    },
    {
      "mesh": 4,
      "name": "pGear3_blinn2_0"
    },
    {
      "children": [
        16
      ],
      "name": "pPipe2",
      "rotation": [
        -0.70143705606460571,
        -0.08936474472284317,
        -0.08936474472284317,
        0.70143705606460571
      ],
      "translation": [
        4.4408920985006262e-16,
        0.19971726834774017,
        -2.2204460492503131e-16
      ]
    },
    {
      "mesh": 5,
      "name": "pPipe2_phongE1_0"
    },
    {
      "children": [
        18
      ],
      "name": "pCylinder3",
      "scale": [
        0.20000000298023224,
        1,
        0.20000000298023224
      ]
    },
    {
      "mesh": 6,
      "name": "pCylinder3_blinn1_0"
    },
    {
      "children": [
        20
      ],
      "name": "pGear4",
      "rotation": [
        0.7071068286895752,
        0,
        0,
        0.7071068286895752
      ],
      "scale": [
        0.30000001192092896,
        0.30000001192092896,
        0.30000001192092896
      ],
      "translation": [
        0,
        0,
        0.07567981630563736
      ]
    },
    {
      "name": "transform1",
      "rotation": [
        -6.1629758220391547e-33,
        -0,
        0,
        1
      ]
    },
    {
      "children": [
        22
      ],
      "name": "pPipe1",
      "rotation": [
        0.7071068286895752,
        0,
        0,
        0.7071068286895752
      ],
      "scale": [
        0.40000000596046448,
        0.40000000596046448,
        0.40000000596046448
      ],
      "translation": [
        0,
        0,
        -0.05049346387386322
      ]
    },
    {
      "name": "transform2"
    },
    {
      "name": "aiAreaLight1",
      "rotation": [
        -0.44570395350456238,
        -0,
        0,
        0.89518040418624878
      ],
      "translation": [
        0,
        5.6881546974182129,
        3.1412515640258789
      ]
    }
  ],
  "scene": 0,
  "scenes": [
    {
      "name": "OSG_Scene",
      "nodes": [
        0
      ]
    }
  ]
}

